<svg version="1.1" id="Layer_1" xmlns="http://www.w3.org/2000/svg" xmlns:xlink="http://www.w3.org/1999/xlink" x="0px" y="0px" width="100%" viewBox="0 0 1280 848" enable-background="new 0 0 1280 848" xml:space="preserve">

<path fill="#FDFDFD" opacity="1.000000" stroke="none" d="
M225.128357,616.558838 
	C225.153534,547.947937 225.153534,479.795654 225.153534,411.178192 
	C215.257065,411.178192 205.511383,411.178192 195.461182,411.178192 
	C195.461182,404.964783 195.461182,399.202545 195.461182,392.930145 
	C205.932053,389.703156 216.679703,386.371521 227.439743,383.080505 
	C237.108765,380.123199 246.930237,377.595612 256.429657,374.171600 
	C266.264160,370.626770 276.223846,370.753052 286.781006,371.188049 
	C286.781006,379.148315 286.781006,386.883942 286.781006,394.895874 
	C297.668640,389.259674 307.815369,383.234131 318.561646,378.598511 
	C344.044922,367.605804 368.583679,368.811035 390.549866,387.196808 
	C404.276123,398.685791 412.099182,414.015594 416.236115,431.267944 
	C422.350952,456.768616 421.425446,481.954742 410.541962,505.969543 
	C396.976685,535.901733 372.571320,552.081604 340.806610,558.005310 
	C323.090332,561.309204 305.326569,559.993958 287.203979,558.332214 
	C287.203979,578.037598 287.203979,597.604797 287.203979,617.879089 
	C296.718384,620.033325 306.660461,622.284424 316.774353,624.574463 
	C316.774353,630.342407 316.774353,635.934753 316.774353,641.767456 
	C277.423920,641.767456 238.156555,641.767456 198.165512,641.767456 
	C198.165512,636.776733 198.023407,631.676880 198.293411,626.598999 
	C198.343430,625.658752 199.916992,624.303162 201.024414,623.997192 
	C207.579910,622.186157 214.218658,620.678833 220.797104,618.946594 
	C222.297745,618.551453 223.671188,617.673279 225.128357,616.558838 
M308.611786,536.223450 
	C326.808258,533.601013 340.059387,524.176697 347.461273,507.251831 
	C354.945190,490.139404 355.602600,472.126312 353.352692,453.898987 
	C351.963684,442.646271 348.578949,432.043182 340.487885,423.711334 
	C325.120697,407.886658 306.148773,410.155701 287.113831,413.026703 
	C287.113831,454.630981 287.113831,495.675293 287.113831,537.403503 
	C294.198395,537.060791 300.970825,536.733215 308.611786,536.223450 
z" data-index="1" style="visibility: visible; opacity: 1;"></path>
<path fill="#FEFEFE" opacity="1.000000" stroke="none" d="
M578.161011,520.999878 
	C578.161011,496.182098 578.161011,471.864319 578.161011,445.941559 
	C576.187256,449.114563 574.937256,451.087677 573.722473,453.082275 
	C552.796753,487.442017 531.833191,521.778931 511.027649,556.211365 
	C509.244202,559.162903 507.320618,560.131165 503.974426,560.078186 
	C491.647064,559.882874 479.314728,560.000488 466.984283,560.000305 
	C465.367096,560.000305 463.749939,560.000244 461.787720,560.000244 
	C461.787720,510.448486 461.787720,461.396912 461.787720,412.000366 
	C449.776123,410.746765 438.070557,409.525055 425.833099,408.247864 
	C425.833099,403.063416 425.686249,398.112823 425.956757,393.185089 
	C426.010986,392.196899 427.507263,390.710541 428.585358,390.441223 
	C449.366516,385.249420 470.072601,379.652069 491.050568,375.404816 
	C499.328094,373.728943 508.228668,375.130066 517.041321,375.130066 
	C517.041321,414.774506 517.041321,454.048889 517.041321,494.992126 
	C518.754761,492.476013 519.744446,491.160706 520.591248,489.759125 
	C543.030640,452.619720 565.492004,415.493347 587.800598,378.275482 
	C589.304993,375.765686 590.802246,374.911621 593.610962,374.939575 
	C606.907654,375.071777 620.206421,374.998596 633.823242,374.998596 
	C633.823242,421.214569 633.823242,467.137085 633.823242,514.547791 
	C638.681763,508.168427 642.745178,502.897186 646.740417,497.574768 
	C657.027527,483.870239 667.350769,470.191559 677.473633,456.366394 
	C678.814880,454.534668 679.717529,451.916229 679.735413,449.653564 
	C679.904968,428.159912 679.801147,406.664276 679.910217,385.169830 
	C679.919434,383.355347 680.323669,380.884888 681.521912,379.838379 
	C691.199524,371.386108 702.536255,368.578217 714.979736,371.641907 
	C726.993408,374.599701 734.751282,382.470367 737.675354,394.424896 
	C740.057129,404.162537 738.558899,413.959442 733.381104,422.378326 
	C725.734619,434.811005 717.613220,447.035889 708.724304,458.604187 
	C683.475708,491.463562 657.703186,523.920166 632.253296,556.625854 
	C630.313171,559.119202 628.438843,560.112854 625.265808,560.075928 
	C609.784546,559.895691 594.299927,559.994385 578.161011,559.994385 
	C578.161011,547.024780 578.161011,534.262329 578.161011,520.999878 
z" data-index="2" style="visibility: visible; opacity: 1;"></path>
<path fill="#FDFDFD" opacity="1.000000" stroke="none" d="
M820.248169,411.337799 
	C811.840698,423.756805 808.950317,437.460175 808.164917,451.760712 
	C807.239807,468.604767 808.856873,485.050507 816.939209,500.232849 
	C828.871338,522.647034 851.312988,533.099365 875.762512,526.281921 
	C888.944031,522.606384 901.453857,516.517456 914.254333,511.485748 
	C916.068787,510.772522 917.812622,509.879639 920.169312,508.805511 
	C920.169312,519.604309 920.240417,529.874390 920.062378,540.140137 
	C920.044006,541.200745 918.765015,542.700073 917.695190,543.214722 
	C889.098816,556.971313 859.275146,564.734741 827.174744,563.030273 
	C780.678955,560.561646 746.230103,528.598145 740.855225,481.782471 
	C737.378906,451.503937 744.391296,424.194183 765.704834,401.614868 
	C781.363159,385.026520 801.227173,376.055389 823.428589,372.433716 
	C845.221863,368.878632 866.909546,369.207306 887.711975,377.914154 
	C902.151733,383.957886 913.346313,393.273407 917.348145,409.260437 
	C922.623840,430.335693 908.886597,448.331390 887.202087,449.036316 
	C877.106262,449.364532 867.851074,446.865265 858.929810,442.286102 
	C855.987549,440.775879 854.878174,439.160370 854.919128,435.840515 
	C855.098389,421.345673 854.987610,406.847198 854.969910,392.350067 
	C854.969543,392.028931 854.823914,391.707977 854.664612,391.050934 
	C840.658020,393.307404 829.004822,399.468842 820.248169,411.337799 
z" data-index="3" style="visibility: visible; opacity: 1;"></path>
<path fill="#F95109" opacity="1.000000" stroke="none" d="
M803.997070,319.543457 
	C743.903809,319.543304 684.309998,319.543304 623.541626,319.543304 
	C625.953491,315.335815 627.746033,312.074921 629.662476,308.888580 
	C637.899597,295.193634 646.324524,281.608307 654.332825,267.781372 
	C656.484253,264.066803 658.923157,263.029053 663.045715,263.037170 
	C725.695129,263.160492 788.344849,263.078888 850.994263,263.189697 
	C854.292847,263.195526 855.832886,262.169037 857.485291,259.355743 
	C867.179504,242.850861 877.062439,226.452866 887.208923,210.223404 
	C888.285217,208.502029 891.479309,207.251160 893.703369,207.232086 
	C917.695068,207.026199 941.689209,207.115250 965.682739,207.115982 
	C1004.005676,207.117142 1042.328613,207.112442 1080.651611,207.110260 
	C1082.288696,207.110168 1083.925781,207.110260 1086.315796,207.110260 
	C1085.619019,208.921875 1085.337891,210.157944 1084.717651,211.190323 
	C1075.027710,227.316925 1065.224976,243.376205 1055.630737,259.559296 
	C1053.775146,262.689270 1051.590942,263.675232 1048.000000,263.667847 
	C986.017090,263.540375 924.033630,263.626190 862.051208,263.416229 
	C856.814575,263.398499 854.026184,265.191071 851.479553,269.575897 
	C842.451782,285.119995 832.947083,300.386383 823.806213,315.866089 
	C822.128723,318.706818 820.197754,319.784210 816.989929,319.601501 
	C812.837830,319.364960 808.662048,319.543701 803.997070,319.543457 
M1054.005127,257.494263 
	C1055.524658,253.225983 1057.044067,248.957703 1058.569214,244.673538 
	C1058.845703,245.770157 1059.166992,247.044678 1059.846191,249.738403 
	C1061.472046,245.473450 1062.557251,242.627045 1063.348999,240.550064 
	C1061.570679,237.748703 1060.099121,235.430649 1058.627563,233.112610 
	C1059.064941,232.763535 1059.502319,232.414459 1059.939697,232.065384 
	C1061.669067,232.694962 1063.398438,233.324539 1065.247070,233.997543 
	C1065.489014,228.248444 1068.468506,225.244919 1073.319092,226.267715 
	C1073.319092,220.982147 1073.319092,215.845352 1073.319092,210.000000 
	C1071.559937,210.000000 1069.617432,210.000000 1067.674927,210.000000 
	C1012.211182,210.000000 956.747437,209.999924 901.283691,210.000519 
	C900.117798,210.000534 898.859253,209.734360 897.812195,210.089127 
	C896.769653,210.442383 895.294128,211.293030 895.122437,212.149033 
	C894.103210,217.231476 891.353577,217.703812 887.385437,215.093246 
	C886.830872,215.946518 886.435791,216.462082 886.137329,217.028610 
	C883.925598,221.227448 882.507080,226.214462 879.299194,229.405624 
	C876.538147,232.152298 876.239319,233.395828 877.537781,236.895416 
	C878.107300,238.430283 874.496094,243.548401 872.989502,243.461563 
	C867.194580,243.127518 869.475342,245.338959 870.901794,247.855850 
	C872.851562,251.296036 872.178284,253.770157 868.203674,254.961121 
	C867.114502,253.549255 866.190613,252.351669 865.117737,250.960983 
	C863.222412,254.394592 861.609192,257.317047 860.080872,260.085785 
	C863.494263,260.440430 866.181702,260.961121 868.869507,260.963348 
	C924.832947,261.009979 980.796326,260.997955 1036.759766,260.996826 
	C1039.162231,260.996796 1041.841064,260.300110 1043.909790,261.129089 
	C1048.261353,262.872742 1051.275269,262.138489 1054.005127,257.494263 
M1075.631958,217.723419 
	C1076.128052,218.210175 1076.624146,218.696945 1077.120239,219.183701 
	C1078.766357,216.386063 1080.412598,213.588425 1082.058716,210.790787 
	C1081.321045,210.367477 1080.583496,209.944168 1079.845825,209.520859 
	C1078.523315,212.034164 1077.200806,214.547470 1075.631958,217.723419 
M1066.313354,235.475540 
	C1065.975098,236.021744 1065.636841,236.567963 1065.298584,237.114136 
	C1065.572510,237.248779 1065.846436,237.383423 1066.120361,237.518066 
	C1066.325073,236.983154 1066.529785,236.448242 1066.313354,235.475540 
M868.413696,248.483139 
	C868.413696,248.483139 868.523010,248.418304 868.413696,248.483139 
z" data-index="4" style="visibility: visible; opacity: 1;"></path>

<path fill="#F95009" opacity="1.000000" stroke="none" d="
M1053.740234,257.763733 
	C1051.275269,262.138489 1048.261353,262.872742 1043.909790,261.129089 
	C1041.841064,260.300110 1039.162231,260.996796 1036.759766,260.996826 
	C980.796326,260.997955 924.832947,261.009979 868.869507,260.963348 
	C866.181702,260.961121 863.494263,260.440430 860.080872,260.085785 
	C861.609192,257.317047 863.222412,254.394592 865.117737,250.960983 
	C866.190613,252.351669 867.114502,253.549255 868.203674,254.961121 
	C872.178284,253.770157 872.851562,251.296036 870.901794,247.855850 
	C869.475342,245.338959 867.194580,243.127518 872.989502,243.461563 
	C874.496094,243.548401 878.107300,238.430283 877.537781,236.895416 
	C876.239319,233.395828 876.538147,232.152298 879.299194,229.405624 
	C882.507080,226.214462 883.925598,221.227448 886.137329,217.028610 
	C886.435791,216.462082 886.830872,215.946518 887.385437,215.093246 
	C891.353577,217.703812 894.103210,217.231476 895.122437,212.149033 
	C895.294128,211.293030 896.769653,210.442383 897.812195,210.089127 
	C898.859253,209.734360 900.117798,210.000534 901.283691,210.000519 
	C956.747437,209.999924 1012.211182,210.000000 1067.674927,210.000000 
	C1069.617432,210.000000 1071.559937,210.000000 1073.319092,210.000000 
	C1073.319092,215.845352 1073.319092,220.982147 1073.319092,226.267715 
	C1068.468506,225.244919 1065.489014,228.248444 1065.247070,233.997543 
	C1063.398438,233.324539 1061.669067,232.694962 1059.939697,232.065384 
	C1059.502319,232.414459 1059.064941,232.763535 1058.627563,233.112610 
	C1060.099121,235.430649 1061.570679,237.748703 1063.348999,240.550064 
	C1062.557251,242.627045 1061.472046,245.473450 1059.846191,249.738403 
	C1059.166992,247.044678 1058.845703,245.770157 1058.569214,244.673538 
	C1057.044067,248.957703 1055.524658,253.225983 1053.740234,257.763733 
z" data-index="6" style="visibility: visible; opacity: 1;"></path>
<path fill="#F95009" opacity="1.000000" stroke="none" d="
M1075.755127,217.392090 
	C1077.200806,214.547470 1078.523315,212.034164 1079.845825,209.520859 
	C1080.583496,209.944168 1081.321045,210.367477 1082.058716,210.790787 
	C1080.412598,213.588425 1078.766357,216.386063 1077.120239,219.183716 
	C1076.624146,218.696945 1076.128052,218.210175 1075.755127,217.392090 
z" data-index="7" style="visibility: visible;"></path>
<path fill="#F95009" opacity="1.000000" stroke="none" d="
M1066.523926,235.694427 
	C1066.529785,236.448242 1066.325073,236.983154 1066.120361,237.518066 
	C1065.846436,237.383423 1065.572510,237.248779 1065.298584,237.114151 
	C1065.636841,236.567963 1065.975098,236.021744 1066.523926,235.694427 
z" data-index="8" style="visibility: visible;"></path>
<path fill="#F95009" opacity="1.000000" stroke="none" d="
M868.468384,248.450714 
	C868.523010,248.418304 868.413696,248.483139 868.468384,248.450714 
z" data-index="9" style="visibility: visible;"></path>
</svg>